<svg width="16" height="16" viewBox="0 0 16 16" fill="none" xmlns="http://www.w3.org/2000/svg">
<rect y="13.1831" width="11.3176" height="2.81695" rx="1.40847" fill="black"/>
<path d="M4.3686 12.7335C4.19052 12.7335 4.10148 12.7335 4.07408 12.6775C4.04668 12.6214 4.10141 12.5513 4.21088 12.4109L13.4672 0.545106C13.9484 -0.0716675 14.839 -0.181465 15.4558 0.299972C16.0676 0.777588 16.1804 1.65842 15.7086 2.27452L7.81849 12.5768C7.75955 12.6537 7.73009 12.6922 7.68822 12.7129C7.64636 12.7335 7.59787 12.7335 7.50089 12.7335H4.3686Z" fill="black"/>
<path d="M1.35116 5.5437L7.64614 7.80887L10.7578 3.69333L2.07665 4.07235C2.01032 4.07525 1.94976 4.11085 1.91501 4.16736L1.24854 5.25115C1.18215 5.35911 1.23184 5.50076 1.35116 5.5437Z" fill="black"/>
<path d="M14.1694 15.2102L10.2498 9.78727L13.3591 5.661L15.3875 14.1064C15.403 14.171 15.3854 14.239 15.3405 14.288L14.479 15.2282C14.3935 15.3216 14.2436 15.3129 14.1694 15.2102Z" fill="black"/>
<path d="M7.63077 7.80788L10.7316 3.69648L12.8473 3.69648L13.3592 5.67476L10.2579 9.79672L9.22692 8.51992L7.63077 7.80788Z" fill="black"/>
</svg>
