<svg width="16" height="16" viewBox="0 0 16 16" fill="none" xmlns="http://www.w3.org/2000/svg">
<rect x="0.0518799" y="13.2347" width="12.2508" height="2.76535" rx="1.38267" fill="black"/>
<path d="M3.40944 12.5003C3.21668 12.5003 3.1203 12.5003 3.09064 12.4453C3.06097 12.3902 3.12022 12.3213 3.23872 12.1836L13.2583 0.535121C13.7791 -0.0703547 14.7432 -0.178141 15.4108 0.294477C16.0731 0.763344 16.1952 1.62804 15.6844 2.23286L7.1438 12.3464C7.08 12.4219 7.04811 12.4597 7.00279 12.48C6.95747 12.5003 6.90498 12.5003 6.80001 12.5003H3.40944Z" fill="black"/>
<path d="M0.143195 5.44214L6.95724 7.66583L10.3255 3.62568L0.928503 3.99775C0.85671 4.0006 0.791154 4.03554 0.753534 4.09102L0.0321183 5.15495C-0.0397474 5.26094 0.0140346 5.4 0.143195 5.44214Z" fill="black"/>
<path d="M14.0184 14.9316L9.77561 9.60798L13.1412 5.5573L15.3369 13.848C15.3537 13.9114 15.3346 13.9782 15.2861 14.0262L14.3536 14.9492C14.2609 15.0409 14.0987 15.0324 14.0184 14.9316Z" fill="black"/>
<path d="M6.9406 7.66485L10.2971 3.62877L12.5873 3.62877L13.1414 5.57081L9.78435 9.61726L8.66836 8.36385L6.9406 7.66485Z" fill="black"/>
</svg>
